<svg width="22" height="23" viewBox="0 0 22 23" fill="none" xmlns="http://www.w3.org/2000/svg">
<path d="M11 2.42578C9.23233 2.42578 7.50436 2.94996 6.0346 3.93202C4.56483 4.91409 3.41929 6.30993 2.74283 7.94305C2.06637 9.57616 1.88938 11.3732 2.23424 13.1069C2.57909 14.8406 3.43031 16.4331 4.68024 17.683C5.93017 18.933 7.52268 19.7842 9.25638 20.129C10.9901 20.4739 12.7871 20.2969 14.4202 19.6205C16.0534 18.944 17.4492 17.7985 18.4313 16.3287C19.4133 14.8589 19.9375 13.131 19.9375 11.3633C19.935 8.99368 18.9926 6.72184 17.317 5.04628C15.6414 3.37071 13.3696 2.42828 11 2.42578ZM11.6875 18.894V13.4258H13.75C13.9323 13.4258 14.1072 13.3533 14.2361 13.2244C14.3651 13.0955 14.4375 12.9206 14.4375 12.7383C14.4375 12.5559 14.3651 12.3811 14.2361 12.2521C14.1072 12.1232 13.9323 12.0508 13.75 12.0508H11.6875V9.98828C11.6875 9.62361 11.8324 9.27387 12.0902 9.01601C12.3481 8.75815 12.6978 8.61328 13.0625 8.61328H14.4375C14.6198 8.61328 14.7947 8.54085 14.9236 8.41192C15.0526 8.28299 15.125 8.10812 15.125 7.92578C15.125 7.74344 15.0526 7.56858 14.9236 7.43965C14.7947 7.31071 14.6198 7.23828 14.4375 7.23828H13.0625C12.3332 7.23828 11.6337 7.52801 11.118 8.04374C10.6022 8.55946 10.3125 9.25894 10.3125 9.98828V12.0508H8.25C8.06767 12.0508 7.8928 12.1232 7.76387 12.2521C7.63494 12.3811 7.5625 12.5559 7.5625 12.7383C7.5625 12.9206 7.63494 13.0955 7.76387 13.2244C7.8928 13.3533 8.06767 13.4258 8.25 13.4258H10.3125V18.894C8.37444 18.7171 6.57917 17.7998 5.30015 16.333C4.02112 14.8662 3.35678 12.9628 3.44534 11.0187C3.53389 9.07458 4.36851 7.23944 5.77559 5.895C7.18266 4.55055 9.05388 3.8003 11 3.8003C12.9461 3.8003 14.8173 4.55055 16.2244 5.895C17.6315 7.23944 18.4661 9.07458 18.5547 11.0187C18.6432 12.9628 17.9789 14.8662 16.6999 16.333C15.4208 17.7998 13.6256 18.7171 11.6875 18.894Z" fill="black"/>
</svg>
