<svg width="22" height="23" viewBox="0 0 22 23" fill="none" xmlns="http://www.w3.org/2000/svg">
<path d="M11 7.23828C10.1842 7.23828 9.38663 7.48021 8.70827 7.93347C8.02992 8.38673 7.50121 9.03097 7.189 9.78471C6.87679 10.5385 6.7951 11.3679 6.95426 12.168C7.11343 12.9682 7.50629 13.7032 8.08318 14.2801C8.66008 14.857 9.39508 15.2499 10.1953 15.409C10.9954 15.5682 11.8248 15.4865 12.5786 15.1743C13.3323 14.8621 13.9766 14.3334 14.4298 13.655C14.8831 12.9767 15.125 12.1791 15.125 11.3633C15.1239 10.2696 14.6889 9.22106 13.9156 8.44772C13.1422 7.67438 12.0937 7.23942 11 7.23828ZM11 14.1133C10.4561 14.1133 9.92442 13.952 9.47218 13.6498C9.01995 13.3476 8.66747 12.9182 8.45933 12.4157C8.25119 11.9132 8.19673 11.3602 8.30284 10.8268C8.40895 10.2933 8.67086 9.80333 9.05546 9.41874C9.44005 9.03414 9.93005 8.77223 10.4635 8.66612C10.9969 8.56001 11.5499 8.61447 12.0524 8.82261C12.5549 9.03075 12.9844 9.38323 13.2865 9.83546C13.5887 10.2877 13.75 10.8194 13.75 11.3633C13.75 12.0926 13.4603 12.7921 12.9445 13.3078C12.4288 13.8235 11.7293 14.1133 11 14.1133ZM15.125 2.42578H6.875C5.59906 2.42715 4.37578 2.93461 3.47356 3.83684C2.57133 4.73906 2.06386 5.96235 2.0625 7.23828V15.4883C2.06386 16.7642 2.57133 17.9875 3.47356 18.8897C4.37578 19.7919 5.59906 20.2994 6.875 20.3008H15.125C16.4009 20.2994 17.6242 19.7919 18.5264 18.8897C19.4287 17.9875 19.9361 16.7642 19.9375 15.4883V7.23828C19.9361 5.96235 19.4287 4.73906 18.5264 3.83684C17.6242 2.93461 16.4009 2.42715 15.125 2.42578ZM18.5625 15.4883C18.5625 16.4 18.2003 17.2743 17.5557 17.919C16.911 18.5636 16.0367 18.9258 15.125 18.9258H6.875C5.96332 18.9258 5.08898 18.5636 4.44432 17.919C3.79966 17.2743 3.4375 16.4 3.4375 15.4883V7.23828C3.4375 6.3266 3.79966 5.45226 4.44432 4.8076C5.08898 4.16295 5.96332 3.80078 6.875 3.80078H15.125C16.0367 3.80078 16.911 4.16295 17.5557 4.8076C18.2003 5.45226 18.5625 6.3266 18.5625 7.23828V15.4883ZM16.5 6.89453C16.5 7.09849 16.4395 7.29787 16.3262 7.46746C16.2129 7.63705 16.0518 7.76923 15.8634 7.84728C15.675 7.92533 15.4676 7.94576 15.2676 7.90597C15.0675 7.86618 14.8838 7.76796 14.7395 7.62374C14.5953 7.47951 14.4971 7.29576 14.4573 7.09572C14.4175 6.89568 14.4379 6.68833 14.516 6.49989C14.5941 6.31145 14.7262 6.15039 14.8958 6.03708C15.0654 5.92376 15.2648 5.86328 15.4688 5.86328C15.7423 5.86328 16.0046 5.97193 16.198 6.16533C16.3913 6.35872 16.5 6.62103 16.5 6.89453Z" fill="black"/>
</svg>
