<svg width="22" height="23" viewBox="0 0 22 23" fill="none" xmlns="http://www.w3.org/2000/svg">
<path d="M9.19692 14.3883H7.73025V9.62253H9.19692V14.3883ZM8.46358 9.01111C7.93467 9.01111 7.66975 8.76636 7.66975 8.27778C7.66811 8.17973 7.68775 8.08249 7.72731 7.99276C7.76687 7.90304 7.82542 7.82295 7.89892 7.75803C8.05177 7.61542 8.25461 7.5387 8.46358 7.54445C8.9925 7.54445 9.25742 7.79011 9.25742 8.2787C9.25742 8.76728 8.99342 9.01111 8.46358 9.01111ZM14.6364 14.3883H13.1395V11.7299C13.1395 11.0379 12.8938 10.6914 12.4053 10.6914C12.0184 10.6914 11.7645 10.8848 11.6408 11.2716C11.6013 11.333 11.5803 11.4559 11.5803 11.6383V14.3883H10.0833V11.1497C10.0833 10.4164 10.0723 9.90761 10.0531 9.62253H11.3364L11.4281 10.2633C11.7645 9.75361 12.2531 9.4997 12.925 9.4997C13.4356 9.4997 13.8472 9.67753 14.1625 10.0341C14.4797 10.3907 14.6373 10.9049 14.6373 11.5778V14.3883H14.6364ZM11 19.6133C6.45058 19.6133 2.75 15.9127 2.75 11.3633C2.75 6.81386 6.45058 3.11328 11 3.11328C15.5494 3.11328 19.25 6.81386 19.25 11.3633C19.25 15.9127 15.5494 19.6133 11 19.6133ZM11 4.94661C7.46258 4.94661 4.58333 7.82586 4.58333 11.3633C4.58333 14.9007 7.46258 17.7799 11 17.7799C14.5374 17.7799 17.4167 14.9007 17.4167 11.3633C17.4167 7.82586 14.5374 4.94661 11 4.94661Z" fill="black"/>
</svg>
