<svg width="22" height="23" viewBox="0 0 22 23" fill="none" xmlns="http://www.w3.org/2000/svg">
<path d="M18.0714 3.50635H3.9285C2.19275 3.50635 0.785645 4.91345 0.785645 6.6492V16.0778C0.785645 17.8135 2.19275 19.2206 3.9285 19.2206H18.0714C19.8071 19.2206 21.2142 17.8135 21.2142 16.0778V6.6492C21.2142 4.91345 19.8071 3.50635 18.0714 3.50635Z" stroke="black" stroke-linecap="round" stroke-linejoin="round"/>
<path d="M8.34426 15.0092V8.40921C8.34098 8.29778 8.36815 8.18757 8.42286 8.09044C8.47756 7.99331 8.55772 7.91294 8.65471 7.85798C8.75169 7.80302 8.86183 7.77555 8.97327 7.77854C9.0847 7.78153 9.19321 7.81485 9.28712 7.87492L14.9443 11.1749C15.0388 11.2304 15.1172 11.3096 15.1716 11.4047C15.2261 11.4998 15.2547 11.6075 15.2547 11.7171C15.2547 11.8267 15.2261 11.9343 15.1716 12.0294C15.1172 12.1245 15.0388 12.2038 14.9443 12.2592L9.28712 15.5592C9.19115 15.6146 9.08223 15.6437 8.97141 15.6434C8.86059 15.6432 8.75181 15.6136 8.65609 15.5578C8.56036 15.502 8.4811 15.4218 8.42634 15.3255C8.37158 15.2291 8.34326 15.12 8.34426 15.0092Z" stroke="black" stroke-linecap="round" stroke-linejoin="round"/>
</svg>
